<?xml version="1.0" encoding="UTF-8" standalone="no"?><!DOCTYPE svg PUBLIC "-//W3C//DTD SVG 1.1//EN" "http://www.w3.org/Graphics/SVG/1.1/DTD/svg11.dtd"><svg width="100%" height="100%" viewBox="0 0 59 34" version="1.1" xmlns="http://www.w3.org/2000/svg" xmlns:xlink="http://www.w3.org/1999/xlink" xml:space="preserve" xmlns:serif="http://www.serif.com/" style="fill-rule:evenodd;clip-rule:evenodd;stroke-linejoin:round;stroke-miterlimit:2;"><g><path d="M25.615,22.2l-0,-11.067l29.729,0c1.091,0 1.979,0.888 1.979,1.984l-0,7.1c-0,1.095 -0.888,1.983 -1.979,1.983l-29.729,-0Z"/><path d="M1.96,18.358c-0.587,-0.362 -0.95,-1 -0.95,-1.691c0,-0.692 0.363,-1.329 0.95,-1.692c4.992,-3.05 15.475,-9.454 20.642,-12.613c0.613,-0.375 1.379,-0.387 2.004,-0.037c0.625,0.35 1.009,1.008 1.009,1.725l-0,25.233c-0,0.717 -0.384,1.375 -1.009,1.725c-0.625,0.35 -1.391,0.338 -2.004,-0.037c-5.167,-3.159 -15.65,-9.563 -20.642,-12.613Z"/></g></svg>