<?xml version="1.0" encoding="UTF-8" standalone="no"?><!DOCTYPE svg PUBLIC "-//W3C//DTD SVG 1.1//EN" "http://www.w3.org/Graphics/SVG/1.1/DTD/svg11.dtd"><svg width="100%" height="100%" viewBox="0 0 11 11" version="1.1" xmlns="http://www.w3.org/2000/svg" xmlns:xlink="http://www.w3.org/1999/xlink" xml:space="preserve" xmlns:serif="http://www.serif.com/" style="fill-rule:evenodd;clip-rule:evenodd;stroke-linecap:round;stroke-linejoin:round;stroke-miterlimit:1.5;"><g><g><path d="M7.429,1.961l1.26,1.142c0,0 -1.708,1.886 -2.434,2.686c-0.176,0.195 -0.476,0.21 -0.671,0.033c-0.173,-0.157 -0.382,-0.346 -0.556,-0.503c-0.194,-0.176 -0.209,-0.477 -0.033,-0.672c0.725,-0.8 2.434,-2.686 2.434,-2.686Z"/><path d="M9.713,0.134c0.149,-0.031 0.304,0.011 0.417,0.113c0.112,0.102 0.169,0.252 0.153,0.404c-0.076,0.702 -0.198,1.826 -0.284,2.62c-0.019,0.178 -0.136,0.33 -0.304,0.393c-0.167,0.064 -0.355,0.028 -0.488,-0.092c-0.657,-0.595 -1.639,-1.485 -2.296,-2.08c-0.132,-0.12 -0.186,-0.304 -0.139,-0.477c0.046,-0.172 0.186,-0.304 0.361,-0.341c0.782,-0.163 1.889,-0.395 2.58,-0.54Z"/></g><path d="M8.994,5.945l0,4.123l-8.244,-0l0,-8.245l3.777,0" style="fill:none;stroke:#000;stroke-width:1.5px;"/></g></svg>