<?xml version="1.0" encoding="UTF-8" standalone="no"?><!DOCTYPE svg PUBLIC "-//W3C//DTD SVG 1.1//EN" "http://www.w3.org/Graphics/SVG/1.1/DTD/svg11.dtd"><svg width="100%" height="100%" viewBox="0 0 18 18" version="1.1" xmlns="http://www.w3.org/2000/svg" xmlns:xlink="http://www.w3.org/1999/xlink" xml:space="preserve" xmlns:serif="http://www.serif.com/" style="fill-rule:evenodd;clip-rule:evenodd;stroke-linecap:round;stroke-linejoin:round;stroke-miterlimit:1.5;"><g><g><path d="M12.762,2.885l1.918,1.737c0,0 -2.892,3.191 -3.87,4.271c-0.085,0.094 -0.203,0.15 -0.329,0.156c-0.126,0.006 -0.249,-0.038 -0.343,-0.123c-0.345,-0.312 -0.868,-0.786 -1.213,-1.099c-0.093,-0.084 -0.149,-0.202 -0.155,-0.328c-0.006,-0.126 0.038,-0.25 0.122,-0.343c0.979,-1.08 3.87,-4.271 3.87,-4.271Z"/><path d="M16.571,0.035c0.149,-0.031 0.304,0.011 0.417,0.113c0.113,0.102 0.17,0.252 0.153,0.403c-0.123,1.14 -0.379,3.501 -0.521,4.811c-0.019,0.178 -0.137,0.33 -0.304,0.393c-0.167,0.064 -0.355,0.028 -0.488,-0.092c-1.076,-0.975 -3.139,-2.844 -4.215,-3.819c-0.132,-0.12 -0.186,-0.304 -0.139,-0.476c0.047,-0.173 0.186,-0.305 0.361,-0.341c1.29,-0.27 3.614,-0.757 4.736,-0.992Z"/></g><path d="M15.144,8.947l0,6.272l-12.545,-0l0,-12.544l5.747,-0" style="fill:none;stroke:#000;stroke-width:2.5px;"/></g></svg>