<?xml version="1.0" encoding="UTF-8" standalone="no"?><!DOCTYPE svg PUBLIC "-//W3C//DTD SVG 1.1//EN" "http://www.w3.org/Graphics/SVG/1.1/DTD/svg11.dtd"><svg width="100%" height="100%" viewBox="0 0 270 270" version="1.1" xmlns="http://www.w3.org/2000/svg" xmlns:xlink="http://www.w3.org/1999/xlink" xml:space="preserve" xmlns:serif="http://www.serif.com/" style="fill-rule:evenodd;clip-rule:evenodd;stroke-linejoin:round;stroke-miterlimit:2;"><rect id="Artboard1" x="-0" y="0" width="270" height="270" style="fill:none;"/><path d="M198.296,14.949c15.052,0 29.488,5.98 40.132,16.623c10.643,10.644 16.623,25.08 16.623,40.132l-0,126.592c-0,15.052 -5.98,29.488 -16.623,40.132c-10.644,10.643 -25.08,16.623 -40.132,16.623l-126.592,-0c-15.052,-0 -29.488,-5.98 -40.132,-16.623c-10.643,-10.644 -16.623,-25.08 -16.623,-40.132l0,-126.592c0,-15.052 5.98,-29.488 16.623,-40.132c10.644,-10.643 25.08,-16.623 40.132,-16.623l126.592,0Z" style="fill:#0042c7;"/></svg>